<?xml version="1.0" standalone="no"?>
<!DOCTYPE svg PUBLIC "-//W3C//DTD SVG 20010904//EN"
 "http://www.w3.org/TR/2001/REC-SVG-20010904/DTD/svg10.dtd">
<svg version="1.0" xmlns="http://www.w3.org/2000/svg"
 width="500.000000pt" height="131.000000pt" viewBox="0 0 500.000000 131.000000"
 preserveAspectRatio="xMidYMid meet">

<g transform="translate(0.000000,131.000000) scale(0.100000,-0.100000)"
fill="#000000" stroke="none">
<path d="M2631 1029 c-67 -27 -143 -100 -161 -155 -12 -36 -52 -129 -87 -199
-21 -42 -14 -65 27 -89 29 -18 56 -22 160 -24 119 -3 131 -2 248 32 68 20 142
39 164 42 51 9 76 41 57 76 -7 13 -14 44 -15 70 -10 188 -215 317 -393 247z
m31 -43 c-39 -42 -62 -95 -62 -143 0 -13 5 -23 10 -23 6 0 10 12 10 28 1 43
33 104 80 146 45 41 65 43 134 17 l29 -12 -25 -27 c-54 -57 -98 -185 -98 -286
l0 -49 -72 6 c-101 9 -174 32 -194 62 -30 45 6 177 64 238 33 35 105 73 161
86 2 1 -15 -19 -37 -43z m270 -43 c44 -47 55 -68 69 -131 15 -72 -4 -104 -74
-130 -30 -11 -71 -23 -93 -27 -21 -4 -48 -9 -58 -12 -18 -5 -19 -1 -13 68 4
41 16 101 27 135 21 61 72 134 94 134 6 0 28 -17 48 -37z m-462 -267 c22 -23
164 -56 234 -56 106 0 276 48 298 83 6 9 10 9 19 0 18 -18 -4 -40 -49 -48 -20
-3 -91 -22 -157 -42 -115 -33 -126 -35 -246 -31 -98 3 -132 7 -152 21 -32 21
-33 31 -7 82 11 22 20 46 21 55 0 8 6 1 12 -17 7 -18 19 -39 27 -47z"/>
<path d="M1265 1000 c-38 -12 -55 -35 -55 -77 0 -26 -6 -36 -25 -45 -31 -14
-29 -42 3 -46 21 -3 22 -7 22 -118 l0 -114 35 0 35 0 0 115 0 115 35 0 c32 0
35 2 35 29 0 26 -4 30 -32 33 -27 2 -32 7 -30 23 5 26 22 36 50 30 17 -4 24 0
32 21 6 15 9 28 8 29 -10 9 -88 12 -113 5z"/>
<path d="M1404 986 c-13 -33 0 -51 36 -51 32 0 35 2 35 30 0 27 -4 30 -33 33
-22 2 -34 -2 -38 -12z"/>
<path d="M1844 986 c-11 -28 1 -51 27 -54 31 -4 53 20 44 48 -8 24 -62 29 -71
6z"/>
<path d="M4010 929 l0 -70 -22 15 c-35 25 -104 21 -133 -8 -23 -23 -45 -82
-45 -121 0 -39 22 -98 45 -121 31 -31 92 -32 128 -4 l26 20 6 -20 c4 -14 15
-20 36 -20 l29 0 0 200 0 200 -35 0 -35 0 0 -71z m-16 -121 c9 -12 16 -41 16
-63 0 -53 -23 -85 -60 -85 -37 0 -60 32 -60 85 0 53 23 85 60 85 18 0 34 -8
44 -22z"/>
<path d="M845 961 c-65 -40 -91 -100 -82 -192 6 -66 28 -112 70 -143 41 -30
173 -30 214 0 50 38 68 81 68 164 0 86 -20 130 -75 167 -44 30 -150 32 -195 4z
m160 -65 c49 -49 42 -173 -12 -215 -40 -32 -98 -24 -130 18 -33 44 -26 159 13
198 32 32 96 32 129 -1z"/>
<path d="M3170 790 l0 -190 40 0 40 0 0 76 c0 72 1 75 22 72 14 -2 36 -27 66
-75 45 -73 45 -73 89 -73 l43 0 -55 82 -54 82 32 27 c28 24 32 33 32 77 0 85
-44 112 -182 112 l-73 0 0 -190z m168 108 c35 -30 -4 -88 -60 -88 -27 0 -28 1
-28 56 l0 56 38 -7 c20 -4 43 -11 50 -17z"/>
<path d="M1400 745 l0 -145 40 0 40 0 0 145 0 145 -40 0 -40 0 0 -145z"/>
<path d="M1604 871 c-42 -26 -57 -67 -52 -147 4 -60 7 -70 36 -95 27 -25 41
-29 88 -29 72 0 94 12 94 51 0 26 -3 30 -17 23 -38 -16 -90 -16 -106 0 -25 26
-31 78 -13 121 l16 38 54 -6 c52 -5 55 -4 61 20 8 34 -7 43 -75 43 -36 0 -65
-6 -86 -19z"/>
<path d="M1840 745 l0 -145 35 0 35 0 0 145 0 145 -35 0 -35 0 0 -145z"/>
<path d="M2031 864 c-71 -60 -60 -208 19 -249 47 -24 123 -20 158 10 41 35 55
75 50 142 -4 49 -9 60 -41 90 -33 30 -43 33 -96 33 -49 0 -65 -4 -90 -26z
m139 -53 c16 -31 12 -117 -6 -135 -20 -20 -68 -21 -84 -1 -21 26 -25 101 -6
130 21 32 80 36 96 6z"/>
<path d="M3559 875 c-59 -32 -79 -152 -36 -216 30 -45 60 -59 130 -59 71 0 97
12 97 46 0 24 -2 25 -32 17 -83 -20 -138 -1 -138 49 0 16 10 18 90 18 l90 0 0
46 c0 39 -5 51 -34 80 -30 30 -40 34 -87 34 -30 -1 -66 -7 -80 -15z m115 -51
c31 -31 20 -44 -39 -44 -41 0 -55 4 -55 14 0 22 29 46 55 46 13 0 31 -7 39
-16z"/>
</g>
</svg>
